<svg height="140" width="350" xmlns="http://www.w3.org/2000/svg" xmlns:xlink="http://www.w3.org/1999/xlink"><defs><linearGradient id="a" x1="50%" x2="50%" y1=".779%" y2="100%"><stop offset="0" stop-color="#0989b4" stop-opacity="0"/><stop offset=".9994" stop-color="#53ffee"/></linearGradient><path id="b" d="m0 0h350v140h-350z"/><mask id="c" fill="#fff"><use fill="#fff" fill-rule="evenodd" xlink:href="#b"/></mask></defs><g fill="none" fill-rule="evenodd"><use fill="#41cbd3" xlink:href="#b"/><g fill="url(#a)" mask="url(#c)" opacity=".5"><g transform="translate(-11 -4)"><ellipse cx="60.479" cy="14.8" rx="14.8" ry="14.834" transform="matrix(0 1 -1 0 75.279 -45.679)"/><ellipse cx="14.834" cy="14.8" rx="14.834" ry="14.8" transform="matrix(-1 0 0 -1 29.668 29.6)"/><ellipse cx="151.767" cy="14.8" rx="14.834" ry="14.8"/><ellipse cx="106.123" cy="14.8" rx="14.8" ry="14.834" transform="matrix(0 -1 1 0 91.323 120.923)"/><ellipse cx="243.055" cy="14.8" rx="14.8" ry="14.834" transform="matrix(0 1 -1 0 257.855 -228.255)"/><ellipse cx="197.411" cy="14.8" rx="14.834" ry="14.8" transform="matrix(-1 0 0 -1 394.822 29.6)"/><ellipse cx="334.344" cy="14.8" rx="14.834" ry="14.8"/><ellipse cx="288.699" cy="14.8" rx="14.8" ry="14.834" transform="matrix(0 -1 1 0 273.9 303.5)"/></g><g transform="translate(-11 91.63)"><ellipse cx="60.479" cy="14.8" rx="14.8" ry="14.834" transform="matrix(0 1 -1 0 75.279 -45.679)"/><ellipse cx="14.834" cy="14.8" rx="14.834" ry="14.8" transform="matrix(-1 0 0 -1 29.668 29.6)"/><ellipse cx="151.767" cy="14.8" rx="14.834" ry="14.8"/><ellipse cx="106.123" cy="14.8" rx="14.8" ry="14.834" transform="matrix(0 -1 1 0 91.323 120.923)"/><ellipse cx="243.055" cy="14.8" rx="14.8" ry="14.834" transform="matrix(0 1 -1 0 257.855 -228.255)"/><ellipse cx="197.411" cy="14.8" rx="14.834" ry="14.8" transform="matrix(-1 0 0 -1 394.822 29.6)"/><ellipse cx="334.344" cy="14.8" rx="14.834" ry="14.8"/><ellipse cx="288.699" cy="14.8" rx="14.8" ry="14.834" transform="matrix(0 -1 1 0 273.9 303.5)"/></g><g transform="translate(-11 43.815)"><ellipse cx="60.479" cy="14.8" rx="14.8" ry="14.834" transform="matrix(0 -1 1 0 45.679 75.279)"/><ellipse cx="14.834" cy="14.8" rx="14.834" ry="14.8"/><ellipse cx="151.767" cy="14.8" rx="14.834" ry="14.8"/><ellipse cx="106.123" cy="14.8" rx="14.8" ry="14.834" transform="matrix(0 1 -1 0 120.923 -91.323)"/><ellipse cx="243.055" cy="14.8" rx="14.8" ry="14.834" transform="matrix(0 -1 1 0 228.255 257.855)"/><ellipse cx="197.411" cy="14.8" rx="14.834" ry="14.8"/><ellipse cx="334.344" cy="14.8" rx="14.834" ry="14.8"/><ellipse cx="288.699" cy="14.8" rx="14.8" ry="14.834" transform="matrix(0 1 -1 0 303.5 -273.9)"/></g><g transform="translate(11.822 18.77)"><ellipse cx="60.479" cy="14.8" rx="14.8" ry="14.834" transform="matrix(0 1 -1 0 75.279 -45.679)"/><ellipse cx="14.834" cy="14.8" rx="14.834" ry="14.8" transform="matrix(-1 0 0 -1 29.668 29.6)"/><ellipse cx="151.767" cy="14.8" rx="14.834" ry="14.8"/><ellipse cx="106.123" cy="14.8" rx="14.8" ry="14.834" transform="matrix(0 -1 1 0 91.323 120.923)"/><ellipse cx="243.055" cy="14.8" rx="14.8" ry="14.834" transform="matrix(0 1 -1 0 257.855 -228.255)"/><ellipse cx="197.411" cy="14.8" rx="14.834" ry="14.8" transform="matrix(-1 0 0 -1 394.822 29.6)"/><ellipse cx="334.344" cy="14.8" rx="14.834" ry="14.8"/><ellipse cx="288.699" cy="14.8" rx="14.8" ry="14.834" transform="matrix(0 -1 1 0 273.9 303.5)"/></g><g transform="translate(11.822 114.4)"><ellipse cx="60.479" cy="14.8" rx="14.8" ry="14.834" transform="matrix(0 1 -1 0 75.279 -45.679)"/><ellipse cx="14.834" cy="14.8" rx="14.834" ry="14.8" transform="matrix(-1 0 0 -1 29.668 29.6)"/><ellipse cx="151.767" cy="14.8" rx="14.834" ry="14.8"/><ellipse cx="106.123" cy="14.8" rx="14.8" ry="14.834" transform="matrix(0 -1 1 0 91.323 120.923)"/><ellipse cx="243.055" cy="14.8" rx="14.8" ry="14.834" transform="matrix(0 1 -1 0 257.855 -228.255)"/><ellipse cx="197.411" cy="14.8" rx="14.834" ry="14.8" transform="matrix(-1 0 0 -1 394.822 29.6)"/><ellipse cx="334.344" cy="14.8" rx="14.834" ry="14.8"/><ellipse cx="288.699" cy="14.8" rx="14.8" ry="14.834" transform="matrix(0 -1 1 0 273.9 303.5)"/></g><g transform="translate(11.822 66.585)"><ellipse cx="60.479" cy="14.8" rx="14.8" ry="14.834" transform="matrix(0 -1 1 0 45.679 75.279)"/><ellipse cx="14.834" cy="14.8" rx="14.834" ry="14.8"/><ellipse cx="151.767" cy="14.8" rx="14.834" ry="14.8"/><ellipse cx="106.123" cy="14.8" rx="14.8" ry="14.834" transform="matrix(0 1 -1 0 120.923 -91.323)"/><ellipse cx="243.055" cy="14.8" rx="14.8" ry="14.834" transform="matrix(0 -1 1 0 228.255 257.855)"/><ellipse cx="197.411" cy="14.8" rx="14.834" ry="14.8"/><ellipse cx="334.344" cy="14.8" rx="14.834" ry="14.8"/><ellipse cx="288.699" cy="14.8" rx="14.8" ry="14.834" transform="matrix(0 1 -1 0 303.5 -273.9)"/></g></g></g></svg>